<svg width="60" height="47" viewBox="0 0 60 47" fill="none" xmlns="http://www.w3.org/2000/svg">
<path d="M57.8282 0H46.9802C46.6619 0 46.3567 0.12643 46.1316 0.351473C45.9066 0.576517 45.7802 0.88174 45.7802 1.2C45.7802 1.51826 45.9066 1.82349 46.1316 2.04853C46.3567 2.27357 46.6619 2.4 46.9802 2.4H55.9142L36.3962 22.698L26.5982 14.298C26.3699 14.1011 26.0759 13.9974 25.7746 14.0074C25.4733 14.0174 25.1869 14.1404 24.9722 14.352L6.97217 31.938C6.73984 32.1632 6.60647 32.4714 6.60141 32.7949C6.59634 33.1184 6.72 33.4307 6.94516 33.663C7.17033 33.8953 7.47857 34.0287 7.80207 34.0338C8.12557 34.0388 8.43783 33.9152 8.67016 33.69L25.8662 16.89L35.6942 25.29C35.9276 25.49 36.2289 25.5928 36.5359 25.5772C36.8429 25.5615 37.1322 25.4287 37.3442 25.206L56.6222 5.13V12.048C56.6222 12.3663 56.7486 12.6715 56.9736 12.8965C57.1987 13.1216 57.5039 13.248 57.8222 13.248C58.1404 13.248 58.4456 13.1216 58.6707 12.8965C58.8957 12.6715 59.0222 12.3663 59.0222 12.048V1.2C59.0222 0.882777 58.8966 0.57846 58.6728 0.353588C58.4491 0.128716 58.1454 0.00158611 57.8282 0V0Z" fill="#5CADCA"/>
<path d="M8.43617 42.168H6.02417V46.986H8.43617V42.168Z" fill="#5CADCA"/>
<path d="M53.0102 42.168H50.5982V46.986H53.0102V42.168Z" fill="#5CADCA"/>
<path d="M37.3502 42.168H34.9382V46.986H37.3502V42.168Z" fill="#5CADCA"/>
<path d="M22.8903 42.168H20.4783V46.986H22.8903V42.168Z" fill="#5CADCA"/>
<path d="M57.8282 22.89C57.5099 22.89 57.2047 23.0164 56.9797 23.2414C56.7546 23.4665 56.6282 23.7717 56.6282 24.09V36.138C56.6282 37.338 56.2322 37.338 56.0282 37.338H4.21221C3.36021 37.338 2.41221 36.618 2.41221 36.138V3.61196C2.41221 3.12596 3.36621 2.41196 4.21221 2.41196H34.9142C35.2325 2.41196 35.5377 2.28554 35.7627 2.06049C35.9878 1.83545 36.1142 1.53022 36.1142 1.21196C36.1142 0.893703 35.9878 0.58848 35.7627 0.363436C35.5377 0.138392 35.2325 0.0119629 34.9142 0.0119629H4.21221C2.26221 0.0119629 0.012207 1.58996 0.012207 3.61196V36.138C0.012207 38.172 2.27421 39.738 4.21221 39.738H56.0162C57.4742 39.738 59.0162 38.784 59.0162 36.138V24.09C59.0162 23.7738 58.8914 23.4704 58.669 23.2457C58.4465 23.021 58.1444 22.8931 57.8282 22.89Z" fill="#5CADCA"/>
</svg>
