<svg width="60" height="60" viewBox="0 0 60 60" fill="none" xmlns="http://www.w3.org/2000/svg">
<path d="M19.674 36.3839H13.446C13.0625 36.3839 12.6947 36.2316 12.4235 35.9605C12.1524 35.6893 12 35.3215 12 34.938V28.7161C11.9992 28.5257 12.036 28.3369 12.1083 28.1608C12.1807 27.9846 12.2871 27.8246 12.4214 27.6897C12.5558 27.5548 12.7154 27.4478 12.8913 27.3747C13.0671 27.3017 13.2556 27.264 13.446 27.264H19.674C19.8644 27.264 20.0529 27.3017 20.2288 27.3747C20.4046 27.4478 20.5643 27.5548 20.6986 27.6897C20.833 27.8246 20.9393 27.9846 21.0117 28.1608C21.084 28.3369 21.1208 28.5257 21.12 28.7161V34.938C21.12 35.3215 20.9677 35.6893 20.6965 35.9605C20.4253 36.2316 20.0575 36.3839 19.674 36.3839V36.3839ZM14.4 33.9839H18.72V29.664H14.4V33.9839Z" fill="#5CB0CD"/>
<path d="M33.1139 36.3839H26.8859C26.5024 36.3839 26.1347 36.2316 25.8635 35.9605C25.5923 35.6893 25.44 35.3215 25.44 34.938V28.7161C25.4392 28.5257 25.476 28.3369 25.5483 28.1608C25.6206 27.9846 25.727 27.8246 25.8614 27.6897C25.9957 27.5548 26.1554 27.4478 26.3312 27.3747C26.507 27.3017 26.6955 27.264 26.8859 27.264H33.1139C33.3043 27.264 33.4928 27.3017 33.6687 27.3747C33.8445 27.4478 34.0042 27.5548 34.1385 27.6897C34.2729 27.8246 34.3793 27.9846 34.4516 28.1608C34.5239 28.3369 34.5607 28.5257 34.5599 28.7161V34.938C34.5599 35.3215 34.4076 35.6893 34.1364 35.9605C33.8652 36.2316 33.4974 36.3839 33.1139 36.3839V36.3839ZM27.84 33.9839H32.1599V29.664H27.84V33.9839Z" fill="#5CB0CD"/>
<path d="M46.5479 36.3839H40.3259C39.9424 36.3839 39.5746 36.2316 39.3034 35.9605C39.0322 35.6893 38.8799 35.3215 38.8799 34.938V28.7161C38.8791 28.5257 38.9159 28.3369 38.9883 28.1608C39.0606 27.9846 39.1669 27.8246 39.3013 27.6897C39.4356 27.5548 39.5953 27.4478 39.7711 27.3747C39.947 27.3017 40.1355 27.264 40.3259 27.264H46.5479C46.933 27.264 47.3023 27.4169 47.5746 27.6892C47.8469 27.9615 47.9999 28.331 47.9999 28.7161V34.938C47.9999 35.1284 47.9623 35.3169 47.8893 35.4927C47.8162 35.6686 47.7092 35.8283 47.5743 35.9627C47.4393 36.097 47.2792 36.2034 47.1031 36.2757C46.927 36.348 46.7383 36.3847 46.5479 36.3839V36.3839ZM41.2799 33.9839H45.5999V29.664H41.2799V33.9839Z" fill="#5CB0CD"/>
<path d="M46.5479 49.824H40.3259C39.9424 49.824 39.5746 49.6717 39.3034 49.4005C39.0322 49.1294 38.8799 48.7614 38.8799 48.3779V42.15C38.8799 41.7665 39.0322 41.3987 39.3034 41.1275C39.5746 40.8564 39.9424 40.7041 40.3259 40.7041H46.5479C46.7383 40.7033 46.9269 40.74 47.1031 40.8123C47.2792 40.8846 47.4393 40.991 47.5742 41.1253C47.7092 41.2597 47.8162 41.4194 47.8893 41.5953C47.9623 41.7711 47.9999 41.9596 47.9999 42.15V48.3779C47.9999 48.5683 47.9623 48.757 47.8893 48.9328C47.8162 49.1086 47.7092 49.2682 47.5742 49.4026C47.4393 49.5369 47.2792 49.6433 47.1031 49.7156C46.9269 49.7879 46.7383 49.8248 46.5479 49.824V49.824ZM41.2799 47.424H45.5999V43.1041H41.2799V47.424Z" fill="#5CB0CD"/>
<path d="M33.1139 49.824H26.8859C26.5024 49.824 26.1346 49.6717 25.8635 49.4005C25.5923 49.1293 25.4399 48.7614 25.4399 48.3779V42.15C25.4399 41.7665 25.5923 41.3987 25.8635 41.1275C26.1346 40.8563 26.5024 40.704 26.8859 40.704H33.1139C33.4974 40.704 33.8652 40.8563 34.1364 41.1275C34.4076 41.3987 34.5599 41.7665 34.5599 42.15V48.3779C34.5599 48.7614 34.4076 49.1293 34.1364 49.4005C33.8652 49.6717 33.4974 49.824 33.1139 49.824V49.824ZM27.8399 47.424H32.1599V43.104H27.8399V47.424Z" fill="#5CB0CD"/>
<path d="M54.828 59.4H16.164C15.6611 59.4002 15.164 59.2933 14.7057 59.0864C14.2474 58.8795 13.8384 58.5773 13.506 58.2L12.528 57.0899L0.876013 43.848C0.31209 43.2012 0.000965212 42.3722 0 41.514V8.95796C0 5.66996 2.124 3.37207 5.172 3.37207H54.828C57.972 3.37207 60 5.39999 60 8.54399V54.2279C60 57.3719 57.972 59.4 54.828 59.4ZM2.68198 42.264L14.328 55.5L15.306 56.6101C15.4135 56.7314 15.5456 56.8283 15.6936 56.8945C15.8415 56.9608 16.0019 56.9947 16.164 56.994H54.828C56.67 56.994 57.6 56.0641 57.6 54.2221V8.53799C57.6 6.70199 56.67 5.76606 54.828 5.76606H5.172C3.126 5.76606 2.4 7.40995 2.4 8.95195V41.508C2.40015 41.7838 2.50033 42.0503 2.68198 42.258V42.264Z" fill="#5CB0CD"/>
<path d="M58.8 16.998H1.2V19.398H58.8V16.998Z" fill="#5CB0CD"/>
<path d="M24.402 9.6C24.0837 9.6 23.7785 9.47363 23.5534 9.24858C23.3284 9.02354 23.202 8.71826 23.202 8.4V1.2C23.202 0.88174 23.3284 0.57646 23.5534 0.351416C23.7785 0.126372 24.0837 0 24.402 0C24.7202 0 25.0255 0.126372 25.2505 0.351416C25.4755 0.57646 25.602 0.88174 25.602 1.2V8.4C25.602 8.71826 25.4755 9.02354 25.2505 9.24858C25.0255 9.47363 24.7202 9.6 24.402 9.6Z" fill="#5CB0CD"/>
<path d="M13.2 9.6C12.8817 9.6 12.5765 9.47363 12.3515 9.24858C12.1264 9.02354 12 8.71826 12 8.4V1.2C12 0.88174 12.1264 0.57646 12.3515 0.351416C12.5765 0.126372 12.8817 0 13.2 0C13.5183 0 13.8235 0.126372 14.0485 0.351416C14.2736 0.57646 14.4 0.88174 14.4 1.2V8.4C14.4 8.71826 14.2736 9.02354 14.0485 9.24858C13.8235 9.47363 13.5183 9.6 13.2 9.6Z" fill="#5CB0CD"/>
<path d="M35.598 9.6C35.2798 9.6 34.9745 9.47363 34.7495 9.24858C34.5245 9.02354 34.398 8.71826 34.398 8.4V1.2C34.398 0.88174 34.5245 0.57646 34.7495 0.351416C34.9745 0.126372 35.2798 0 35.598 0C35.9163 0 36.2215 0.126372 36.4466 0.351416C36.6716 0.57646 36.798 0.88174 36.798 1.2V8.4C36.798 8.71826 36.6716 9.02354 36.4466 9.24858C36.2215 9.47363 35.9163 9.6 35.598 9.6Z" fill="#5CB0CD"/>
<path d="M46.8 9.6C46.4817 9.6 46.1765 9.47363 45.9515 9.24858C45.7264 9.02354 45.6 8.71826 45.6 8.4V1.2C45.6 0.88174 45.7264 0.57646 45.9515 0.351416C46.1765 0.126372 46.4817 0 46.8 0C47.1183 0 47.4235 0.126372 47.6485 0.351416C47.8736 0.57646 48 0.88174 48 1.2V8.4C48 8.71826 47.8736 9.02354 47.6485 9.24858C47.4235 9.47363 47.1183 9.6 46.8 9.6Z" fill="#5CB0CD"/>
</svg>
