<svg width="62" height="58" viewBox="0 0 62 58" fill="none" xmlns="http://www.w3.org/2000/svg">
<path d="M45.264 6.1888e-05C43.1779 -0.00577699 41.1113 0.401595 39.1835 1.19867C37.2557 1.99575 35.5049 3.16677 34.032 4.64409L30.57 7.89608L27.108 4.65607C24.124 1.67986 20.0815 0.00852136 15.867 0.00852136C11.6525 0.00852136 7.61 1.67986 4.626 4.65607C-1.53 10.8121 -1.554 20.0581 4.626 27.2161L8.226 30.6421C8.44639 30.8515 8.73802 30.9694 9.042 30.9721H21.042C21.2749 30.9721 21.5045 30.9179 21.7128 30.8137C21.9211 30.7096 22.1023 30.5584 22.242 30.3721L25.242 25.0741L29.004 31.7821L29.55 32.7541C29.6663 32.9526 29.8373 33.1135 30.0425 33.2176C30.2477 33.3216 30.4785 33.3645 30.7074 33.3412C30.9363 33.3178 31.1536 33.2291 31.3335 33.0856C31.5134 32.9422 31.6482 32.75 31.722 32.5321L32.214 31.0021L35.862 19.6021L38.61 29.4181L38.796 30.0781C38.9056 30.3384 39.0903 30.5601 39.3265 30.7151C39.5626 30.87 39.8395 30.9511 40.122 30.9481H49.65L30.558 54.1321L14.028 35.3941L13.614 34.9261L11.814 36.5041L29.664 56.7901C29.7763 56.9162 29.914 57.0173 30.0681 57.0865C30.2221 57.1558 30.3891 57.1918 30.558 57.1921V57.1921C30.7302 57.1889 30.8997 57.1487 31.055 57.0741C31.2103 56.9996 31.3478 56.8925 31.458 56.7601L52.968 30.5521C53.1104 30.3771 53.2005 30.1654 53.2281 29.9415C53.2557 29.7176 53.2197 29.4904 53.124 29.2861C53.0272 29.0828 52.8751 28.9108 52.6852 28.7899C52.4953 28.6689 52.2751 28.6039 52.05 28.6021H40.818L37.05 15.1741C36.9756 14.9325 36.8268 14.7205 36.6248 14.5684C36.4228 14.4164 36.178 14.332 35.9252 14.3273C35.6724 14.3227 35.4246 14.398 35.2172 14.5425C35.0097 14.687 34.8532 14.8934 34.77 15.1321L30.258 29.1901L26.25 22.0501C26.1379 21.8767 25.9842 21.7342 25.8029 21.6355C25.6216 21.5368 25.4184 21.4851 25.212 21.4851C25.0056 21.4851 24.8024 21.5368 24.6211 21.6355C24.4398 21.7342 24.2861 21.8767 24.174 22.0501L20.508 28.5901H9.52799L6.36001 25.5901C1.00801 19.3981 0.959992 11.6701 6.29999 6.34807C8.84234 3.81441 12.2869 2.39425 15.8762 2.39988C19.4655 2.4055 22.9056 3.83644 25.44 6.37806L29.748 10.4101C29.9696 10.6142 30.2598 10.7274 30.561 10.7274C30.8622 10.7274 31.1525 10.6142 31.374 10.4101L35.676 6.38407V6.35408C36.9266 5.09441 38.415 4.09569 40.0547 3.41589C41.6945 2.7361 43.4529 2.3888 45.228 2.39409V2.39409C47.0034 2.38855 48.7624 2.73514 50.403 3.41384C52.0436 4.09254 53.5333 5.08985 54.786 6.34807C59.424 10.9861 60.048 17.4781 56.43 23.2861L55.77 24.3901L56.778 25.0261L57.786 25.6621L58.488 24.5521C62.688 17.8501 61.89 10.0441 56.514 4.66808C55.0414 3.18373 53.2886 2.00671 51.3573 1.20537C49.4261 0.404033 47.3549 -0.00567881 45.264 6.1888e-05V6.1888e-05Z" fill="#5CADCA"/>
</svg>
