<svg width="61" height="56" viewBox="0 0 61 56" fill="none" xmlns="http://www.w3.org/2000/svg">
<path d="M59.2744 2.09893L50.0045 11.3689C45.748 5.52717 39.3734 1.5841 32.2457 0.383968C25.118 -0.816162 17.8038 0.822045 11.869 4.94784C5.93421 9.07363 1.85063 15.359 0.492592 22.4583C-0.865444 29.5576 0.610041 36.9064 4.60309 42.9313C8.59614 48.9562 14.7894 53.1783 21.8568 54.6936C28.9241 56.2089 36.3038 54.8969 42.4159 51.0385C48.528 47.1802 52.8865 41.0822 54.5583 34.0502C56.23 27.0182 55.0822 19.6111 51.3605 13.4149L60.9605 3.81493L59.2744 2.09893ZM52.8844 27.6469C52.9034 33.7093 50.7517 39.5782 46.8188 44.1916C42.8858 48.8051 37.4314 51.8584 31.4425 52.799C25.4535 53.7397 19.3257 52.5055 14.1678 49.3198C9.0099 46.1341 5.1627 41.2074 3.3223 35.4312C1.48191 29.6549 1.76991 23.4107 4.13419 17.8283C6.49848 12.246 10.7829 7.69436 16.2121 4.997C21.6414 2.29965 27.8568 1.63477 33.7337 3.12269C39.6106 4.6106 44.7608 8.15302 48.2524 13.1089L25.7765 35.5789L15.1864 24.9889L13.4825 26.6929L24.9244 38.1349C25.036 38.2474 25.1687 38.3367 25.315 38.3976C25.4612 38.4585 25.618 38.4899 25.7765 38.4899C25.9349 38.4899 26.0917 38.4585 26.238 38.3976C26.3842 38.3367 26.5169 38.2474 26.6284 38.1349L49.5784 15.1909C51.7458 18.9844 52.8853 23.278 52.8844 27.6469Z" fill="#5CADCA"/>
</svg>
