<?xml version="1.0" encoding="utf-8"?>
<!-- Generator: Adobe Illustrator 16.0.0, SVG Export Plug-In . SVG Version: 6.00 Build 0)  -->
<!DOCTYPE svg PUBLIC "-//W3C//DTD SVG 1.1//EN" "http://www.w3.org/Graphics/SVG/1.1/DTD/svg11.dtd">
<svg version="1.1" id="Layer_1" xmlns="http://www.w3.org/2000/svg" xmlns:xlink="http://www.w3.org/1999/xlink" x="0px" y="0px"
	 width="205.956px" height="180.196px" viewBox="0 0 205.956 180.196" enable-background="new 0 0 205.956 180.196"
	 xml:space="preserve">
<path fill="none" d="M85.34,161.329c0.038-0.038,0.08-0.069,0.118-0.106l-0.011-0.011C85.41,161.25,85.378,161.291,85.34,161.329z"
	/>
<path fill="#F9AE62" d="M205.956,51.488C205.956,23.053,182.903,0,154.466,0c-14.219,0-27.081,5.771-36.396,15.089l-0.011-0.011
	l-8.078,8.078l-0.023-0.023l-7.005,7.004l-5.998,5.997L81.068,52.022L62.289,70.802c8.805,8.805,23.748,8.138,33.325-1.439
	c0.484-0.486,1.454-1.516,1.418-1.552l0.066,0.066l21.798-21.797l0.87-0.87c6.751,6.141,15.393,9.288,23.924,9.288h49.157v30.91
	l-10.828,11.345l8.855-8.855l-0.012-0.012C200.183,78.571,205.956,65.709,205.956,51.488z"/>
<linearGradient id="SVGID_1_" gradientUnits="userSpaceOnUse" x1="104.4814" y1="100.2036" x2="192.8467" y2="100.2036">
	<stop  offset="0" style="stop-color:#F89624"/>
	<stop  offset="1" style="stop-color:#F9AE62"/>
</linearGradient>
<path fill="url(#SVGID_1_)" d="M175.431,103.655l6.588-6.902l-6.7,6.701C175.354,103.521,175.396,103.586,175.431,103.655z"/>
<path fill="#F9AE62" d="M192.847,54.498h-49.157c-8.531,0-17.173-3.147-23.924-9.288l-0.87,0.87l54.017,54.018
	c0.183,0.23,0.346,0.453,0.504,0.675c0.754,0.814,1.388,1.716,1.902,2.682l6.7-6.701l10.828-11.345V54.498z"/>
<linearGradient id="SVGID_2_" gradientUnits="userSpaceOnUse" x1="104.4814" y1="74.3315" x2="192.8467" y2="74.3315">
	<stop  offset="0" style="stop-color:#F89624"/>
	<stop  offset="1" style="stop-color:#F9AE62"/>
</linearGradient>
<path fill="url(#SVGID_2_)" d="M192.847,54.498h-49.157c-8.531,0-17.173-3.147-23.924-9.288l-0.87,0.87l54.017,54.018
	c0.183,0.23,0.346,0.453,0.504,0.675c0.754,0.814,1.388,1.716,1.902,2.682l6.7-6.701l10.828-11.345V54.498z"/>
<path fill="#F89624" d="M85.458,161.222c0.244-0.238,0.493-0.465,0.748-0.679l-0.078-0.074c-0.214,0.253-0.444,0.499-0.681,0.742
	L85.458,161.222z"/>
<path fill="#F89624" d="M143.745,142.081c4.089,0.91,8.461-0.291,11.635-3.468c0.002-0.002,0.004-0.004,0.006-0.007
	C152.441,141.48,148.007,142.695,143.745,142.081z"/>
<path fill="#F89624" d="M105.108,176.822c1.492,0.713,3.055,1.11,4.621,1.201c-1.528-0.127-3.062-0.566-4.549-1.322
	C105.157,176.742,105.132,176.782,105.108,176.822z"/>
<linearGradient id="SVGID_3_" gradientUnits="userSpaceOnUse" x1="86.5137" y1="151.6196" x2="113.4006" y2="178.5065">
	<stop  offset="0" style="stop-color:#F89624"/>
	<stop  offset="1" style="stop-color:#F9AE62"/>
</linearGradient>
<path opacity="0.5" fill="url(#SVGID_3_)" d="M109.729,178.023c1.867,0.154,3.717-0.154,5.448-0.926
	C113.444,177.824,111.587,178.13,109.729,178.023z"/>
<path fill="#F9AE62" d="M103.217,161.371c-4.681-4.683-11.88-5.151-17.011-0.827c-0.255,0.214-0.504,0.44-0.748,0.679
	c-0.039,0.037-0.08,0.068-0.118,0.106c0.038-0.038,0.07-0.079,0.107-0.117c0.237-0.243,0.467-0.489,0.681-0.742
	c2.797-3.317,3.612-7.519,2.578-11.337c-0.367-1.355-0.964-2.663-1.792-3.865c-0.474-0.719-1.01-1.416-1.639-2.047
	c-4.601-4.602-11.68-5.09-16.803-0.994c4.089-5.119,3.621-12.215-0.974-16.808c-0.637-0.642-1.329-1.194-2.059-1.675
	c-4.888-3.342-11.482-2.961-16.021,1.578c5.159-5.158,4.866-12.889-0.081-17.834c-4.377-4.379-11.118-4.914-16.13-1.463
	c-0.654,0.451-1.283,0.962-1.869,1.549l0.029,0.029c-0.846,0.848-1.413,3.666-0.024,5.057l18.046,18.044l30.613,30.612
	l17.593,17.348c1.75,2.333,4.75,1.309,4.75,1.309l0.788-0.604c0.785-0.785,1.433-1.646,1.974-2.547
	c0.023-0.04,0.049-0.08,0.072-0.121C108.057,171.787,107.366,165.517,103.217,161.371z"/>
<linearGradient id="SVGID_4_" gradientUnits="userSpaceOnUse" x1="128.083" y1="111.2026" x2="154.69" y2="137.8096">
	<stop  offset="0" style="stop-color:#F89624"/>
	<stop  offset="1" style="stop-color:#F9AE62"/>
</linearGradient>
<path opacity="0.5" fill="url(#SVGID_4_)" d="M155.492,138.511l-0.011-0.011c-0.033,0.034-0.062,0.071-0.096,0.105
	C155.42,138.573,155.458,138.544,155.492,138.511z"/>
<linearGradient id="SVGID_5_" gradientUnits="userSpaceOnUse" x1="119.9932" y1="119.2925" x2="146.6002" y2="145.8995">
	<stop  offset="0" style="stop-color:#F89624"/>
	<stop  offset="1" style="stop-color:#F9AE62"/>
</linearGradient>
<path opacity="0.5" fill="url(#SVGID_5_)" d="M141.228,141.49c0.824,0.271,1.666,0.468,2.518,0.591
	c-0.793-0.177-1.572-0.438-2.333-0.774L141.228,141.49z"/>
<linearGradient id="SVGID_6_" gradientUnits="userSpaceOnUse" x1="102.4468" y1="137.9849" x2="128.46" y2="163.998">
	<stop  offset="0" style="stop-color:#F89624"/>
	<stop  offset="1" style="stop-color:#F9AE62"/>
</linearGradient>
<path opacity="0.5" fill="url(#SVGID_6_)" d="M123.493,159.224c0.199,0.08,0.401,0.147,0.604,0.218
	c-0.195-0.073-0.388-0.157-0.58-0.241L123.493,159.224z"/>
<linearGradient id="SVGID_7_" gradientUnits="userSpaceOnUse" x1="146.6445" y1="93.7837" x2="172.5361" y2="119.6753">
	<stop  offset="0" style="stop-color:#F89624"/>
	<stop  offset="1" style="stop-color:#F9AE62"/>
</linearGradient>
<path opacity="0.5" fill="url(#SVGID_7_)" d="M173.083,120.542c0.115-0.102,0.232-0.189,0.347-0.295l-0.028-0.028
	c-0.053,0.056-0.098,0.117-0.151,0.171S173.138,120.49,173.083,120.542z"/>
<path fill="#F89624" d="M175.431,103.655c-0.035-0.068-0.076-0.134-0.112-0.201c-0.515-0.966-1.148-1.867-1.902-2.682
	c-0.158-0.222-0.321-0.444-0.504-0.675L118.896,46.08L97.098,67.876l-0.066-0.066c0.036,0.036-0.934,1.066-1.418,1.552
	c-9.577,9.577-24.52,10.244-33.325,1.439l18.779-18.779l15.887-15.889l5.998-5.997L90.291,17.475l-0.088,0.088
	C80.765,6.803,66.925,0,51.488,0C23.052,0,0,23.053,0,51.488c0,15.437,6.803,29.277,17.562,38.715l-0.088,0.088l15.734,15.734
	c5.012-3.451,11.753-2.916,16.13,1.463c4.947,4.945,5.24,12.676,0.081,17.834c4.539-4.539,11.133-4.92,16.021-1.578
	c0.73,0.48,1.421,1.033,2.059,1.675c4.595,4.593,5.063,11.688,0.974,16.808c5.123-4.096,12.202-3.607,16.803,0.994
	c0.629,0.631,1.165,1.328,1.639,2.047c0.827,1.202,1.425,2.51,1.792,3.865c1.034,3.818,0.219,8.02-2.578,11.337l0.078,0.074
	c5.131-4.324,12.33-3.855,17.011,0.827c4.149,4.146,4.839,10.416,1.963,15.33c1.486,0.756,3.021,1.195,4.549,1.322
	c1.857,0.107,3.715-0.199,5.448-0.926c0.121-0.054,0.241-0.111,0.361-0.17c0.144-0.065,0.287-0.135,0.43-0.207
	c1.222-0.613,2.372-1.426,3.397-2.451c3.767-3.762,4.821-9.138,2.848-13.766l1.279-1.279l0.023-0.023
	c0.192,0.084,0.385,0.168,0.58,0.241c0.203,0.07,0.406,0.143,0.612,0.203c0.078,0.024,0.156,0.051,0.235,0.074
	c0.314,0.087,0.632,0.159,0.95,0.224c3.295,0.695,6.759,0.043,9.624-1.93c0.719-0.473,1.424-1,2.055-1.629
	c3.799-3.798,4.787-9.278,2.717-13.956l0.938-0.938l0.185-0.184c0.761,0.337,1.54,0.598,2.333,0.774
	c4.262,0.614,8.696-0.601,11.641-3.475c0.034-0.034,0.062-0.071,0.096-0.105c0.596-0.607,1.125-1.255,1.573-1.942
	c2.458-3.595,2.895-8.105,1.154-12.048l1.252-1.252c4.563,1.976,9.846,0.94,13.622-2.716c0.055-0.053,0.113-0.099,0.167-0.152
	s0.099-0.115,0.151-0.171C177.327,116.129,178.164,109.007,175.431,103.655z"/>
<linearGradient id="SVGID_8_" gradientUnits="userSpaceOnUse" x1="86.5898" y1="151.5435" x2="113.4767" y2="178.4303">
	<stop  offset="0" style="stop-color:#F89624"/>
	<stop  offset="1" style="stop-color:#F9AE62"/>
</linearGradient>
<path opacity="0.5" fill="url(#SVGID_8_)" d="M91.089,146.75l-2.383,2.383c1.034,3.818,0.219,8.02-2.578,11.337l0.078,0.074
	c5.131-4.324,12.33-3.855,17.011,0.827c4.149,4.146,4.839,10.416,1.963,15.33c1.486,0.756,3.021,1.195,4.549,1.322
	c1.857,0.107,3.715-0.199,5.448-0.926c0.121-0.054,0.241-0.111,0.361-0.17c0.144-0.065,0.287-0.135,0.43-0.207
	c1.049-0.565,2.046-1.306,2.962-2.223L91.089,146.75z"/>
<linearGradient id="SVGID_9_" gradientUnits="userSpaceOnUse" x1="123.2871" y1="115.9985" x2="149.8941" y2="142.6055">
	<stop  offset="0" style="stop-color:#F89624"/>
	<stop  offset="1" style="stop-color:#F9AE62"/>
</linearGradient>
<path opacity="0.5" fill="url(#SVGID_9_)" d="M118.544,120.447l17.137,17.55c0.191,0.214-0.115-0.024,0.091,0.179
	c1.567,1.568,3.453,2.655,5.456,3.314l0.185-0.184c0.761,0.337,1.54,0.598,2.333,0.774c4.262,0.614,8.696-0.601,11.641-3.475
	c0.034-0.034,0.062-0.071,0.096-0.105l-27.496-27.495L118.544,120.447z"/>
<linearGradient id="SVGID_10_" gradientUnits="userSpaceOnUse" x1="106.1123" y1="134.3198" x2="132.1255" y2="160.333">
	<stop  offset="0" style="stop-color:#F89624"/>
	<stop  offset="1" style="stop-color:#F9AE62"/>
</linearGradient>
<path opacity="0.5" fill="url(#SVGID_10_)" d="M137.514,156.415l-26.823-26.961l-9.441,9.442l16.749,16.75
	c0.19,0.215-0.273-0.354-0.068-0.148c1.665,1.666,3.561,2.929,5.563,3.727l0.023-0.023c0.192,0.084,0.385,0.168,0.58,0.241
	c0.203,0.07,0.406,0.143,0.612,0.203c0.078,0.024,0.156,0.051,0.235,0.074c0.314,0.087,0.632,0.159,0.95,0.224
	C129.815,160.732,133.96,159.728,137.514,156.415z"/>
<linearGradient id="SVGID_11_" gradientUnits="userSpaceOnUse" x1="142.1104" y1="98.3179" x2="168.002" y2="124.2095">
	<stop  offset="0" style="stop-color:#F89624"/>
	<stop  offset="1" style="stop-color:#F9AE62"/>
</linearGradient>
<path opacity="0.5" fill="url(#SVGID_11_)" d="M137.249,102.896l16.749,16.75c0.19,0.215-0.273-0.354-0.068-0.148
	c5.373,5.376,13.04,6.444,19.153,1.045c0.055-0.053,0.113-0.099,0.167-0.152s0.099-0.115,0.151-0.171L146.69,93.454L137.249,102.896
	z"/>
</svg>
