<svg width="58" height="61" viewBox="0 0 58 61" fill="none" xmlns="http://www.w3.org/2000/svg">
<path d="M25.5244 37.5677C25.3272 37.5684 25.1319 37.53 24.9496 37.4548C24.7673 37.3797 24.6018 37.2692 24.4624 37.1297L18.4624 31.1297C18.1895 30.8464 18.0389 30.4673 18.0429 30.074C18.0468 29.6807 18.205 29.3046 18.4836 29.0269C18.7621 28.7492 19.1386 28.592 19.5319 28.5892C19.9252 28.5863 20.3039 28.738 20.5864 29.0117L25.5304 33.9497L39.4804 19.9997C39.619 19.8566 39.7847 19.7426 39.9678 19.6642C40.1509 19.5859 40.3478 19.5448 40.547 19.5434C40.7461 19.5419 40.9435 19.5802 41.1278 19.6559C41.312 19.7316 41.4793 19.8431 41.62 19.9841C41.7606 20.1252 41.8718 20.2928 41.9469 20.4773C42.0221 20.6617 42.0597 20.8593 42.0577 21.0585C42.0557 21.2576 42.0141 21.4544 41.9352 21.6373C41.8563 21.8202 41.7419 21.9855 41.5984 22.1237L26.5984 37.1237" fill="#5CADCA"/>
<path d="M28.5242 60.0617C28.361 60.0626 28.1987 60.0362 28.0442 59.9837C22.5242 58.1477 15.5942 52.0277 10.3922 44.3837C3.59106 34.3981 -0.0315329 22.5893 0.000206796 10.5077C0.000203622 10.1109 0.157454 9.73025 0.437463 9.44912C0.717471 9.16799 1.09742 9.00928 1.4942 9.00769C9.9482 9.00769 23.2322 3.2237 27.6902 0.247705C27.9373 0.0861101 28.226 0 28.5212 0C28.8164 0 29.1052 0.0861101 29.3522 0.247705C33.8162 3.2477 47.1003 9.00769 55.5483 9.00769C55.9461 9.00769 56.3276 9.16569 56.6089 9.447C56.8902 9.7283 57.0483 10.1099 57.0483 10.5077C57.0789 22.5892 53.4564 34.3976 46.6562 44.3837C41.4542 52.0097 34.5243 58.1357 28.9983 59.9837C28.8458 60.0362 28.6855 60.0626 28.5242 60.0617V60.0617ZM3.01822 11.9777C3.26498 22.9591 6.68913 33.6337 12.8763 42.7096C18.1863 50.5096 24.4502 55.4057 28.5242 56.9717C32.5922 55.4057 38.8622 50.4976 44.1722 42.7096C50.3569 33.6329 53.7789 22.9585 54.0242 11.9777C49.1402 11.6657 43.6922 9.98568 39.8222 8.55168C35.9101 7.13257 32.1297 5.37385 28.5242 3.29568C24.9167 5.3739 21.1343 7.1326 17.2203 8.55168C13.3503 9.98568 7.90222 11.6657 3.01822 11.9777Z" fill="#5CADCA"/>
</svg>
