<svg width="70" height="63" viewBox="0 0 70 63" fill="none" xmlns="http://www.w3.org/2000/svg">
<path d="M32.886 28.7999L31.95 15.6959H30.75L29.814 28.7999C29.4101 29.0323 29.066 29.3556 28.8087 29.7441C28.5515 30.1326 28.3883 30.5757 28.3321 31.0382C28.2758 31.5008 28.3282 31.9701 28.4849 32.4089C28.6415 32.8477 28.8983 33.244 29.2347 33.5664C29.5711 33.8887 29.978 34.1283 30.4231 34.266C30.8682 34.4038 31.3393 34.436 31.7991 34.3601C32.2588 34.2842 32.6945 34.1022 33.0716 33.8286C33.4488 33.555 33.7571 33.1973 33.972 32.7839L42.222 31.9559V30.7559L33.972 29.9399C33.7201 29.4684 33.3448 29.0743 32.886 28.7999V28.7999Z" fill="#5CADCA"/>
<path d="M32.5562 49.4279H30.1682V57.8639H32.5562V49.4279Z" fill="#5CADCA"/>
<path d="M32.5802 4.85388H30.1682V13.2899H32.5802V4.85388Z" fill="#5CADCA"/>
<path d="M14.5081 30.1798H6.07207V32.5918H14.5081V30.1798Z" fill="#5CADCA"/>
<path d="M44.0521 42.1851L42.3492 43.8933L48.2982 49.8237L50.0011 48.1154L44.0521 42.1851Z" fill="#5CADCA"/>
<path d="M14.3422 12.4925L12.6346 14.1959L18.6009 20.1769L20.3085 18.4734L14.3422 12.4925Z" fill="#5CADCA"/>
<path d="M48.3221 12.6734L42.5414 18.4581L44.2475 20.1631L50.0282 14.3783L48.3221 12.6734Z" fill="#5CADCA"/>
<path d="M18.6241 42.3762L12.6653 48.3308L14.366 50.0327L20.3248 44.0781L18.6241 42.3762Z" fill="#5CADCA"/>
<path d="M67.4281 27.3298L62.6761 32.0819C62.6761 31.8359 62.6761 31.5959 62.6761 31.3559C62.6805 23.468 59.7103 15.8685 54.3582 10.0743C49.006 4.2801 41.6657 0.717324 33.8022 0.0970881C25.9388 -0.523148 18.1307 1.84481 11.9363 6.72829C5.74194 11.6118 1.61703 18.6516 0.38483 26.4426C-0.847374 34.2336 0.90382 42.2028 5.28883 48.7594C9.67385 55.3161 16.3701 59.978 24.0412 61.8147C31.7122 63.6513 39.7938 62.5276 46.6728 58.6678C53.5518 54.8081 58.7222 48.4961 61.1521 40.9919H58.6081C56.1921 47.8192 51.3014 53.491 44.9038 56.885C38.5061 60.2791 31.0675 61.1481 24.0598 59.3202C17.052 57.4923 10.9857 53.1006 7.061 47.0141C3.13628 40.9275 1.63913 33.5895 2.86576 26.4519C4.09239 19.3144 7.95341 12.8972 13.685 8.47013C19.4165 4.04306 26.601 1.92859 33.817 2.5451C41.0329 3.1616 47.7545 6.46417 52.652 11.7994C57.5495 17.1345 60.266 24.1137 60.2641 31.3559C60.2641 31.5839 60.2641 31.8119 60.2641 32.0459L55.5541 27.3298L53.8501 29.0339L58.5781 33.7619L60.6361 35.8199C60.7477 35.9323 60.8803 36.0216 61.0266 36.0825C61.1728 36.1435 61.3297 36.1748 61.4881 36.1748C61.6465 36.1748 61.8033 36.1435 61.9496 36.0825C62.0958 36.0216 62.2285 35.9323 62.3401 35.8199L64.3981 33.7619L69.1321 29.0339L67.4281 27.3298Z" fill="#5CADCA"/>
</svg>
