<?xml version="1.0" encoding="utf-8"?>
<!-- Generator: Adobe Illustrator 25.4.1, SVG Export Plug-In . SVG Version: 6.00 Build 0)  -->
<svg version="1.1" id="Layer_1" xmlns="http://www.w3.org/2000/svg" xmlns:xlink="http://www.w3.org/1999/xlink" x="0px" y="0px"
	 width="80px" height="80px" viewBox="0 0 80 80" style="enable-background:new 0 0 80 80;" xml:space="preserve">
<style type="text/css">
	.st0{fill:#EBF2FE;}
	.st1{fill:none;stroke:#333333;stroke-width:2;stroke-linecap:round;stroke-linejoin:round;stroke-miterlimit:10;}
	.st2{fill:#333333;}
</style>
<circle class="st0" cx="25.1" cy="56.1" r="22.9"/>
<g>
	<path class="st1" d="M45.7,65.7H13.9c-0.6,0-1-0.4-1-1V6.1c0-0.5,0.4-1,1-1h8.9"/>
</g>
<g>
	<path class="st1" d="M52.6,5.2h8.6c0.6,0,1,0.5,1,1v33.2"/>
</g>
<rect x="22.8" y="1" class="st1" width="29.4" height="7.8"/>
<polygon class="st1" points="44.4,21.6 40,21.6 40,17.1 35.1,17.1 35.1,21.6 30.6,21.6 30.6,26.4 35.1,26.4 35.1,30.9 40,30.9 
	40,26.4 44.4,26.4 "/>
<line class="st1" x1="20" y1="40.5" x2="54.3" y2="40.5"/>
<line class="st1" x1="20" y1="48.2" x2="45.2" y2="48.2"/>
<line class="st1" x1="20" y1="55.9" x2="32.2" y2="55.9"/>
<path class="st1" d="M77.8,56.5c0,9.4-7.7,17.2-17.2,17.2s-17.2-7.7-17.2-17.2s7.7-17.2,17.2-17.2S77.8,46.9,77.8,56.5z"/>
<g>
	<path class="st2" d="M60.1,66.6v-2.3c-1.3,0-2.7-0.5-3.5-1l0.6-1.5c0.8,0.6,2,1,3.2,1c1.6,0,2.8-1,2.8-2.3c0-1.2-0.9-2-2.6-2.8
		c-2.4-1-3.8-2-3.8-4c0-1.9,1.3-3.3,3.4-3.7v-2.3h1.4v2.2c1.3,0,2.3,0.4,3,0.8L64,52.1c-0.5-0.3-1.4-0.8-2.9-0.8c-1.8,0-2.5,1-2.5,2
		c0,1.1,0.9,1.8,2.9,2.6c2.4,1,3.5,2.1,3.5,4.2c0,1.8-1.2,3.5-3.6,3.9v2.4h-1.3V66.6z"/>
</g>
</svg>
