<?xml version="1.0" encoding="utf-8"?>
<!-- Generator: Adobe Illustrator 25.4.1, SVG Export Plug-In . SVG Version: 6.00 Build 0)  -->
<svg version="1.1" id="Layer_1" xmlns="http://www.w3.org/2000/svg" xmlns:xlink="http://www.w3.org/1999/xlink" x="0px" y="0px"
	 width="80px" height="80px" viewBox="0 0 80 80" style="enable-background:new 0 0 80 80;" xml:space="preserve">
<style type="text/css">
	.st0{fill:#EBF2FE;}
	.st1{fill:none;stroke:#333333;stroke-width:2;stroke-linecap:round;stroke-linejoin:round;stroke-miterlimit:10;}
	.st2{fill:#333333;}
</style>
<circle class="st0" cx="56.8" cy="57.1" r="22.9"/>
<g>
	<path class="st1" d="M39,70.6H4c-1.3,0-2.2-1-2.2-2.2V4.2C1.8,3,2.8,2,4,2h46.4c1.3,0,2.2,1,2.2,2.2V16"/>
</g>
<line class="st1" x1="51.5" y1="11.4" x2="2.8" y2="11.4"/>
<line class="st1" x1="38.9" y1="59.5" x2="2.3" y2="59.5"/>
<line class="st1" x1="29.7" y1="7.1" x2="24.6" y2="7.1"/>
<g>
	<path class="st1" d="M70.5,69.8c0,1.3-1,2.2-2.2,2.2H41.8c-1.3,0-2.2-1-2.2-2.2V18.9c0-1.3,1-2.2,2.2-2.2h26.6c1.3,0,2.2,1,2.2,2.2
		L70.5,69.8L70.5,69.8z"/>
</g>
<path class="st2" d="M56.8,67.1c0,0.9-0.7,1.7-1.7,1.7c-0.9,0-1.7-0.7-1.7-1.7c0-0.9,0.7-1.7,1.7-1.7C56.2,65.5,56.8,66.2,56.8,67.1
	z"/>
<line class="st1" x1="39.8" y1="23.4" x2="70.4" y2="23.4"/>
<line class="st1" x1="39.8" y1="62.4" x2="70.4" y2="62.4"/>
<path class="st2" d="M28.7,65.5c0,0.9-0.7,1.7-1.7,1.7c-0.9,0-1.7-0.7-1.7-1.7c0-0.9,0.7-1.7,1.7-1.7C28,63.9,28.7,64.7,28.7,65.5z"
	/>
</svg>
